<svg xmlns="http://www.w3.org/2000/svg" enable-background="new 0 0 3000 2000" viewBox="0 0 3000 2000" id="career-planning-checklist-personal-goal-achievement"><switch><g><polygon fill="#d9d9d9" points="2527.045 1806.816 2237.64 1975 1042.875 1285.202 1332.28 1117.018"></polygon><polygon fill="#dfdbbb" points="1399.158 590.841 1659.357 439.63 1658.879 608.188 1398.681 759.399"></polygon><polygon fill="#fffcd5" points="1056.073 392.76 1316.272 241.549 1659.357 439.63 1399.158 590.841"></polygon><polygon fill="#dfdbbb" points="1609.532 881.134 1869.73 729.923 1869.252 898.464 1609.054 1049.675"></polygon><polygon fill="#fffcd5" points="1398.681 759.399 1658.879 608.188 1869.73 729.923 1609.532 881.134"></polygon><polygon fill="#fffcd5" points="1609.054 1049.675 1869.252 898.464 2080.104 1020.199 1819.905 1171.41"></polygon><polygon fill="#dfdbbb" points="1819.905 1171.41 2080.104 1020.199 2079.626 1188.758 1819.427 1339.969"></polygon><polygon fill="#dfdbbb" points="2029.665 1461.35 2289.864 1310.139 2289.386 1478.68 2029.188 1629.891"></polygon><polygon fill="#fffcd5" points="1819.427 1339.969 2079.626 1188.758 2289.864 1310.139 2029.665 1461.35"></polygon><polygon fill="#dfdbbb" points="2240.039 1751.626 2500.237 1600.415 2499.652 1806.802 2239.454 1958.013"></polygon><polygon fill="#a7a792" points="1399.158 590.841 1398.681 759.399 1609.532 881.134 1609.054 1049.675 1819.905 1171.41 1819.427 1339.969 2029.665 1461.35 2029.188 1629.891 2240.039 1751.626 2239.454 1958.013 1053.577 1273.347 1056.073 392.76"></polygon><polygon fill="#fffcd5" points="2029.188 1629.891 2289.386 1478.68 2500.237 1600.415 2240.039 1751.626"></polygon><polygon fill="#d9d9d9" points="2003.192 1232.666 1928.877 1275.969 1928.919 1107.601 2003.233 1064.283"></polygon><g><path fill="#d9d9d9" d="M1928.919,1107.601c-27.034-14.987-59.159-29.979-100.797-47.957
											c-7.685-3.187-14.939-7.035-21.502-11.513c-2.961-2.022-5.683-4.115-8.165-6.253
											c-26.838-23.096-25.728-51.905,4.352-67.094c32.861-16.606,87.844-10.675,122.808,13.237
											c2.965,2.022,5.686,4.1,8.169,6.238c3.016,2.598,5.68,5.27,7.99,7.988c22.43,25.128,41.702,45.037,61.386,62.202
											L1928.919,1107.601z"></path></g><g><path fill="#d9d9d9" d="M2003.353,1232.749c27.034,14.987,59.159,29.979,100.797,47.956
											c7.685,3.187,14.938,7.035,21.502,11.513c2.961,2.022,5.683,4.115,8.165,6.253c26.838,23.096,25.728,51.905-4.352,67.094
											c-32.861,16.606-87.844,10.675-122.808-13.237c-2.965-2.022-5.686-4.1-8.169-6.238c-3.016-2.598-5.68-5.27-7.99-7.988
											c-22.43-25.128-41.702-45.037-61.386-62.203L2003.353,1232.749z"></path></g><g><path fill="#d9d9d9" d="M2194.365,1894.6c-1.57,0-3.197-0.512-4.838-1.521l-107.375-66.061
									c-5.095-3.139-9.076-10.455-9.059-16.659l0.351-131.485c0.017-5.821,3.451-8.427,6.848-8.427
									c1.572,0,3.199,0.512,4.843,1.521l107.376,66.064c5.093,3.134,9.071,10.451,9.054,16.654l-0.014,5.451l12.909-6.59
									l17.111,31.58l-30.131,15.846l-0.226,85.198C2201.196,1891.993,2197.761,1894.6,2194.365,1894.6L2194.365,1894.6z
									 M2175.365,1852.87c0.007-0.074,0.012-0.159,0.012-0.255l0.101-37.985l-33.568,17.659
									C2141.91,1832.289,2175.35,1852.861,2175.365,1852.87z M2099.043,1802.636c-0.005,1.711,1.24,4.04,2.613,4.884l24.607,15.14
									l-27.138-51.025L2099.043,1802.636z M2135.848,1793.686l39.74-20.293l0.029-10.977c0.005-1.711-1.24-4.038-2.615-4.884
									c0,0-73.692-45.338-73.707-45.348c-0.007,0.074-0.012,0.156-0.012,0.25l-0.055,20.555l3.483-2.115L2135.848,1793.686z"></path><polygon fill="#487732" points="2116.425 1808.765 2133.092 1798.443 2176.332 1776.363 2159.665 1786.685"></polygon><path fill="#fff" d="M2098.653,1811.077c-2.099-1.292-3.792-4.422-3.785-6.987l0.109-40.815l-16.667,10.322
											l-0.109,40.815c-0.007,2.566,1.686,5.695,3.785,6.987l32.327,19.889l16.667-10.322L2098.653,1811.077z"></path><polygon fill="#89e260" points="2083.374 1746.118 2100.041 1735.796 2133.092 1798.443 2116.425 1808.765"></polygon><path fill="#fff" d="M2095.107 1713.891c.003-1.277.426-2.175 1.107-2.597l-16.667 10.322c-.682.422-1.104 1.32-1.107 2.597l-.066 24.942 16.667-10.322L2095.107 1713.891zM2172.315 1856.398l-37.085-22.817-16.667 10.322 37.085 22.817c1.056.65 2.012.709 2.702.282l16.667-10.322C2174.327 1857.107 2173.371 1857.047 2172.315 1856.398zM2180.372 1897.947c-.007 2.657-.888 4.527-2.307 5.406l16.667-10.322c1.42-.879 2.301-2.749 2.307-5.406l.231-86.679-16.667 10.322L2180.372 1897.947z"></path><path fill="#fff" d="M2189.504,1741.587l-107.375-66.062c-2.201-1.354-4.194-1.48-5.633-0.589l-16.667,10.322
												c1.439-0.891,3.432-0.765,5.633,0.589l107.375,66.062c4.368,2.688,7.898,9.203,7.884,14.552l-0.025,9.484l16.667-10.321
												l0.025-9.484C2197.403,1750.79,2193.873,1744.275,2189.504,1741.587z"></path><path fill="#e6e6e6" d="M2172.837,1751.909c4.368,2.688,7.898,9.203,7.884,14.552l-0.025,9.484l-21.031,10.74
												l0.033-12.479c0.007-2.571-1.686-5.695-3.785-6.987l-73.662-45.32c-2.099-1.292-3.803-0.257-3.81,2.314l-0.066,24.942
												l-9.876,5.997l9.811,18.445l-0.109,40.815c-0.007,2.565,1.686,5.695,3.786,6.987l32.327,19.889l2.016,3.79l2.234-1.175
												l37.085,22.817c2.099,1.292,3.803,0.252,3.81-2.314l0.112-42.074l21.032-11.063l-0.23,86.679
												c-0.014,5.349-3.567,7.506-7.936,4.819l-107.375-66.062c-4.372-2.69-7.902-9.206-7.888-14.554l0.35-131.486
												c0.014-5.349,3.567-7.506,7.939-4.816L2172.837,1751.909z"></path><polygon fill="#568e3c" points="2195.058 1768.611 2209.837 1795.89 2180.602 1811.268 2159.57 1822.332 2118.562 1843.902 2116.329 1845.077 2114.313 1841.288 2078.309 1773.597 2068.498 1755.152 2078.374 1749.154 2083.374 1746.118 2116.425 1808.765 2159.665 1786.685 2180.696 1775.945"></polygon><g><polygon fill="#53873a" points="2180.696 1775.945 2197.363 1765.624 2211.725 1758.29 2195.058 1768.611"></polygon></g><g><polygon fill="#89e260" points="2195.058 1768.611 2211.725 1758.29 2226.504 1785.568 2209.837 1795.89"></polygon></g></g><g><path fill="#d9d9d9" d="M1983.287,1606.626c-1.569,0-3.197-0.512-4.838-1.521l-107.376-66.061
									c-5.096-3.139-9.076-10.455-9.059-16.659l0.351-131.485c0.017-5.821,3.452-8.427,6.848-8.427
									c1.572,0,3.199,0.512,4.843,1.521l107.376,66.064c5.093,3.134,9.071,10.451,9.054,16.654l-0.015,5.451l12.909-6.59
									l17.111,31.58l-30.131,15.846l-0.226,85.198C1990.118,1604.018,1986.683,1606.626,1983.287,1606.626L1983.287,1606.626z
									 M1964.287,1564.896c0.007-0.075,0.012-0.159,0.012-0.255l0.101-37.986l-33.568,17.659
									C1930.832,1544.314,1964.273,1564.886,1964.287,1564.896z M1887.965,1514.662c-0.005,1.711,1.24,4.04,2.613,4.884
									l24.607,15.14l-27.138-51.025L1887.965,1514.662z M1924.771,1505.711l39.74-20.293l0.029-10.977
									c0.005-1.711-1.24-4.038-2.615-4.884c0,0-73.692-45.338-73.707-45.347c-0.007,0.074-0.012,0.156-0.012,0.25l-0.055,20.555
									l3.483-2.115L1924.771,1505.711z"></path><polygon fill="#487732" points="1905.347 1520.791 1922.014 1510.469 1965.254 1488.389 1948.587 1498.71"></polygon><path fill="#fff" d="M1887.575,1523.103c-2.099-1.292-3.792-4.421-3.785-6.987l0.109-40.815l-16.667,10.322
											l-0.109,40.815c-0.007,2.566,1.686,5.695,3.785,6.987l32.327,19.889l16.667-10.321L1887.575,1523.103z"></path><polygon fill="#89e260" points="1872.296 1458.144 1888.963 1447.822 1922.014 1510.469 1905.347 1520.791"></polygon><path fill="#fff" d="M1884.03 1425.916c.003-1.277.426-2.175 1.107-2.597l-16.667 10.322c-.682.422-1.104 1.32-1.107 2.597l-.066 24.942 16.667-10.322L1884.03 1425.916zM1961.237 1568.423l-37.085-22.817-16.667 10.321 37.085 22.817c1.056.65 2.012.709 2.702.282l16.667-10.322C1963.249 1569.133 1962.293 1569.073 1961.237 1568.423zM1969.294 1609.973c-.007 2.657-.888 4.527-2.307 5.406l16.667-10.321c1.42-.879 2.3-2.749 2.307-5.406l.231-86.678-16.667 10.322L1969.294 1609.973z"></path><path fill="#fff" d="M1978.427,1453.613l-107.375-66.062c-2.201-1.354-4.194-1.48-5.633-0.589l-16.667,10.322
												c1.439-0.891,3.432-0.765,5.633,0.589l107.375,66.062c4.368,2.688,7.898,9.203,7.884,14.552l-0.025,9.484l16.667-10.322
												l0.025-9.484C1986.325,1462.816,1982.795,1456.3,1978.427,1453.613z"></path><path fill="#e6e6e6" d="M1961.76,1463.934c4.368,2.688,7.898,9.203,7.884,14.552l-0.025,9.484l-21.031,10.74
												l0.033-12.479c0.007-2.571-1.686-5.695-3.785-6.987l-73.662-45.321c-2.099-1.292-3.803-0.257-3.81,2.314l-0.066,24.942
												l-9.876,5.997l9.811,18.445l-0.109,40.815c-0.007,2.566,1.686,5.695,3.785,6.987l32.327,19.889l2.016,3.79l2.234-1.175
												l37.085,22.817c2.099,1.292,3.803,0.252,3.81-2.314l0.112-42.074l21.032-11.063l-0.231,86.679
												c-0.014,5.349-3.567,7.506-7.935,4.819l-107.375-66.062c-4.372-2.69-7.902-9.206-7.888-14.554l0.35-131.486
												c0.014-5.349,3.567-7.506,7.94-4.817L1961.76,1463.934z"></path><polygon fill="#568e3c" points="1983.98 1480.637 1998.76 1507.916 1969.524 1523.294 1948.492 1534.357 1907.485 1555.928 1905.251 1557.103 1903.235 1553.313 1867.231 1485.622 1857.421 1467.177 1867.296 1461.18 1872.296 1458.144 1905.347 1520.791 1948.587 1498.71 1969.618 1487.971"></polygon><g><polygon fill="#53873a" points="1969.618 1487.971 1986.285 1477.649 2000.647 1470.315 1983.98 1480.637"></polygon></g><g><polygon fill="#89e260" points="1983.98 1480.637 2000.647 1470.315 2015.427 1497.594 1998.76 1507.916"></polygon></g></g><g><path fill="#d9d9d9" d="M1772.209,1318.652c-1.57,0-3.197-0.512-4.838-1.522l-107.375-66.061
									c-5.095-3.139-9.076-10.455-9.059-16.659l0.351-131.485c0.017-5.821,3.451-8.427,6.848-8.427
									c1.572,0,3.199,0.512,4.843,1.521l107.376,66.063c5.093,3.134,9.071,10.451,9.054,16.654l-0.014,5.451l12.909-6.59
									l17.111,31.58l-30.131,15.847l-0.226,85.198C1779.04,1316.044,1775.605,1318.652,1772.209,1318.652L1772.209,1318.652z
									 M1753.209,1276.922c0.007-0.075,0.012-0.159,0.012-0.255l0.101-37.985l-33.568,17.659
									C1719.755,1256.34,1753.195,1276.912,1753.209,1276.922z M1676.887,1226.688c-0.005,1.711,1.24,4.04,2.613,4.884
									l24.607,15.14l-27.138-51.025L1676.887,1226.688z M1713.693,1217.737l39.74-20.293l0.029-10.977
									c0.005-1.711-1.24-4.038-2.615-4.884c0,0-73.692-45.338-73.707-45.348c-0.007,0.075-0.012,0.156-0.012,0.25l-0.055,20.555
									l3.483-2.115L1713.693,1217.737z"></path><polygon fill="#487732" points="1694.27 1232.816 1710.937 1222.495 1754.176 1200.414 1737.509 1210.736"></polygon><path fill="#fff" d="M1676.497,1235.128c-2.099-1.292-3.792-4.421-3.785-6.987l0.109-40.815l-16.667,10.321
											l-0.109,40.815c-0.007,2.566,1.686,5.695,3.786,6.987l32.327,19.889l16.667-10.322L1676.497,1235.128z"></path><polygon fill="#89e260" points="1661.219 1170.169 1677.885 1159.848 1710.937 1222.495 1694.27 1232.816"></polygon><path fill="#fff" d="M1672.952 1137.942c.003-1.277.426-2.175 1.107-2.597l-16.667 10.322c-.682.422-1.104 1.32-1.107 2.597l-.066 24.942 16.667-10.321L1672.952 1137.942zM1750.159 1280.449l-37.085-22.817-16.667 10.322 37.086 22.817c1.056.65 2.012.709 2.702.282l16.667-10.322C1752.171 1281.158 1751.215 1281.098 1750.159 1280.449zM1758.216 1321.998c-.007 2.657-.887 4.527-2.307 5.406l16.667-10.322c1.42-.879 2.3-2.749 2.307-5.406l.231-86.678-16.667 10.321L1758.216 1321.998z"></path><path fill="#fff" d="M1767.349,1165.639l-107.375-66.062c-2.201-1.354-4.194-1.48-5.633-0.589l-16.667,10.322
												c1.439-0.891,3.432-0.765,5.633,0.589l107.375,66.062c4.368,2.688,7.898,9.203,7.884,14.552l-0.025,9.485l16.667-10.322
												l0.025-9.484C1775.247,1174.842,1771.717,1168.326,1767.349,1165.639z"></path><path fill="#e6e6e6" d="M1750.682,1175.96c4.368,2.687,7.898,9.203,7.884,14.552l-0.025,9.485l-21.031,10.739
												l0.033-12.479c0.007-2.571-1.686-5.695-3.785-6.987l-73.662-45.32c-2.099-1.292-3.803-0.257-3.81,2.314l-0.066,24.942
												l-9.876,5.997l9.811,18.445l-0.109,40.815c-0.007,2.566,1.686,5.695,3.785,6.987l32.327,19.889l2.016,3.79l2.234-1.175
												l37.086,22.817c2.099,1.292,3.803,0.252,3.81-2.314l0.112-42.074l21.032-11.063l-0.231,86.679
												c-0.014,5.349-3.567,7.506-7.935,4.819l-107.375-66.062c-4.372-2.69-7.902-9.206-7.888-14.554l0.35-131.486
												c0.014-5.349,3.567-7.507,7.94-4.817L1750.682,1175.96z"></path><polygon fill="#568e3c" points="1772.903 1192.662 1787.682 1219.941 1758.447 1235.319 1737.415 1246.383 1696.407 1267.953 1694.173 1269.129 1692.157 1265.339 1656.153 1197.648 1646.343 1179.203 1656.219 1173.206 1661.219 1170.169 1694.27 1232.816 1737.509 1210.736 1758.541 1199.996"></polygon><g><polygon fill="#53873a" points="1758.541 1199.996 1775.208 1189.675 1789.57 1182.341 1772.903 1192.662"></polygon></g><g><polygon fill="#89e260" points="1772.903 1192.662 1789.57 1182.341 1804.349 1209.62 1787.682 1219.941"></polygon></g></g><g><path fill="#d9d9d9" d="M1561.131,1030.677c-1.569,0-3.197-0.512-4.838-1.521l-107.376-66.061
									c-5.095-3.139-9.076-10.455-9.059-16.659l0.351-131.485c0.017-5.821,3.452-8.427,6.848-8.427
									c1.572,0,3.199,0.512,4.843,1.521l107.376,66.064c5.093,3.134,9.071,10.451,9.054,16.654l-0.014,5.451l12.909-6.591
									l17.111,31.58l-30.131,15.846l-0.226,85.198C1567.962,1028.069,1564.528,1030.677,1561.131,1030.677L1561.131,1030.677z
									 M1542.131,988.947c0.007-0.075,0.012-0.159,0.012-0.255l0.101-37.985l-33.568,17.659
									C1508.677,968.366,1542.117,988.938,1542.131,988.947z M1465.81,938.713c-0.005,1.711,1.24,4.04,2.613,4.884l24.607,15.14
									l-27.138-51.025L1465.81,938.713z M1502.615,929.763l39.74-20.293l0.029-10.977c0.005-1.711-1.24-4.038-2.615-4.884
									c0,0-73.692-45.338-73.707-45.348c-0.007,0.075-0.012,0.156-0.012,0.25l-0.055,20.555l3.483-2.115L1502.615,929.763z"></path><polygon fill="#487732" points="1483.192 944.842 1499.859 934.52 1543.099 912.44 1526.432 922.761"></polygon><path fill="#fff" d="M1465.419,947.154c-2.099-1.292-3.792-4.421-3.785-6.987l0.108-40.815l-16.667,10.321
											l-0.109,40.815c-0.007,2.566,1.686,5.695,3.785,6.987l32.327,19.889l16.667-10.322L1465.419,947.154z"></path><polygon fill="#89e260" points="1450.141 882.195 1466.808 871.873 1499.859 934.52 1483.192 944.842"></polygon><path fill="#fff" d="M1461.874 849.968c.003-1.277.426-2.175 1.107-2.597l-16.667 10.322c-.682.422-1.104 1.32-1.107 2.597l-.066 24.942 16.667-10.321L1461.874 849.968zM1539.082 992.474l-37.085-22.817-16.667 10.322 37.085 22.817c1.056.65 2.012.709 2.702.282l16.667-10.321C1541.093 993.184 1540.137 993.124 1539.082 992.474zM1547.138 1034.024c-.007 2.657-.888 4.527-2.307 5.406l16.667-10.322c1.42-.879 2.3-2.749 2.307-5.406l.231-86.679-16.667 10.321L1547.138 1034.024z"></path><path fill="#fff" d="M1556.271,877.664l-107.375-66.062c-2.201-1.354-4.194-1.48-5.633-0.589l-16.667,10.322
												c1.439-0.891,3.432-0.765,5.633,0.589l107.375,66.062c4.368,2.688,7.898,9.203,7.884,14.552l-0.025,9.484l16.667-10.321
												l0.025-9.484C1564.169,886.867,1560.639,880.352,1556.271,877.664z"></path><path fill="#e6e6e6" d="M1539.604,887.986c4.368,2.687,7.898,9.203,7.884,14.552l-0.025,9.484l-21.031,10.74
												l0.033-12.479c0.007-2.571-1.686-5.695-3.785-6.987l-73.662-45.32c-2.099-1.292-3.803-0.257-3.81,2.314l-0.066,24.942
												l-9.876,5.997l9.811,18.445l-0.109,40.815c-0.007,2.566,1.686,5.695,3.785,6.987l32.327,19.889l2.016,3.79l2.234-1.175
												l37.085,22.817c2.099,1.292,3.803,0.252,3.81-2.314l0.112-42.074l21.032-11.063l-0.231,86.679
												c-0.014,5.349-3.567,7.506-7.935,4.819l-107.375-66.062c-4.372-2.69-7.902-9.206-7.888-14.554l0.35-131.486
												c0.014-5.349,3.567-7.507,7.939-4.817L1539.604,887.986z"></path><polygon fill="#568e3c" points="1561.825 904.688 1576.604 931.967 1547.369 947.345 1526.337 958.408 1485.329 979.979 1483.095 981.154 1481.08 977.365 1445.076 909.674 1435.265 891.229 1445.141 885.231 1450.141 882.195 1483.192 944.842 1526.432 922.761 1547.463 912.022"></polygon><g><polygon fill="#53873a" points="1547.463 912.022 1564.13 901.701 1578.492 894.367 1561.825 904.688"></polygon></g><g><polygon fill="#89e260" points="1561.825 904.688 1578.492 894.367 1593.271 921.645 1576.604 931.967"></polygon></g></g><g><path fill="#d9d9d9" d="M1350.054,742.703c-1.57,0-3.197-0.512-4.838-1.521L1237.84,675.12
									c-5.095-3.139-9.076-10.455-9.059-16.659l0.351-131.485c0.017-5.821,3.451-8.427,6.848-8.427
									c1.572,0,3.199,0.512,4.843,1.521l107.375,66.064c5.093,3.134,9.071,10.451,9.054,16.654l-0.014,5.451l12.909-6.591
									l17.111,31.58l-30.131,15.846l-0.226,85.198C1356.885,740.095,1353.45,742.703,1350.054,742.703L1350.054,742.703z
									 M1331.054,700.973c0.007-0.074,0.012-0.159,0.012-0.255l0.101-37.986l-33.568,17.659
									C1297.599,680.391,1331.039,700.963,1331.054,700.973z M1254.732,650.739c-0.005,1.711,1.24,4.04,2.613,4.884l24.607,15.14
									l-27.138-51.025L1254.732,650.739z M1291.537,641.788l39.74-20.293l0.029-10.977c0.005-1.711-1.24-4.038-2.615-4.884
									c0,0-73.692-45.338-73.707-45.347c-0.007,0.075-0.012,0.156-0.012,0.25l-0.055,20.555l3.483-2.115L1291.537,641.788z"></path><polygon fill="#487732" points="1272.114 656.867 1288.781 646.546 1332.021 624.466 1315.354 634.787"></polygon><path fill="#fff" d="M1254.342,659.18c-2.099-1.292-3.792-4.421-3.785-6.987l0.109-40.815l-16.667,10.322
											l-0.109,40.815c-0.007,2.566,1.686,5.695,3.785,6.987l32.327,19.889l16.667-10.321L1254.342,659.18z"></path><polygon fill="#89e260" points="1239.063 594.22 1255.73 583.899 1288.781 646.546 1272.114 656.867"></polygon><path fill="#fff" d="M1250.796 561.993c.003-1.277.426-2.175 1.107-2.597l-16.667 10.321c-.681.422-1.104 1.32-1.107 2.597l-.066 24.942 16.667-10.321L1250.796 561.993zM1328.004 704.5l-37.085-22.817-16.667 10.322 37.086 22.817c1.056.65 2.012.71 2.702.282l16.667-10.322C1330.016 705.209 1329.06 705.15 1328.004 704.5zM1336.061 746.049c-.007 2.657-.888 4.527-2.307 5.406l16.667-10.321c1.42-.879 2.3-2.749 2.307-5.406l.231-86.679-16.667 10.322L1336.061 746.049z"></path><path fill="#fff" d="M1345.193,589.69l-107.375-66.062c-2.201-1.354-4.194-1.48-5.633-0.589l-16.667,10.321
												c1.439-0.891,3.432-0.765,5.633,0.589l107.375,66.062c4.368,2.687,7.898,9.203,7.884,14.552l-0.025,9.484l16.667-10.322
												l0.025-9.484C1353.092,598.893,1349.562,592.377,1345.193,589.69z"></path><path fill="#e6e6e6" d="M1328.526,600.011c4.368,2.687,7.898,9.203,7.884,14.552l-0.025,9.484l-21.031,10.74
												l0.033-12.479c0.007-2.571-1.686-5.695-3.785-6.987l-73.662-45.32c-2.099-1.292-3.803-0.257-3.81,2.314l-0.066,24.942
												l-9.876,5.997l9.811,18.445l-0.109,40.815c-0.007,2.566,1.686,5.695,3.785,6.987l32.327,19.889l2.016,3.79l2.234-1.175
												l37.086,22.817c2.099,1.292,3.803,0.252,3.81-2.314l0.112-42.074l21.032-11.063l-0.231,86.679
												c-0.014,5.349-3.567,7.506-7.935,4.819l-107.375-66.062c-4.372-2.69-7.902-9.206-7.888-14.554l0.35-131.486
												c0.014-5.349,3.567-7.506,7.94-4.817L1328.526,600.011z"></path><polygon fill="#568e3c" points="1350.747 616.714 1365.526 643.992 1336.291 659.371 1315.259 670.434 1274.251 692.005 1272.017 693.18 1270.002 689.39 1233.998 621.699 1224.187 603.254 1234.063 597.257 1239.063 594.22 1272.114 656.867 1315.354 634.787 1336.385 624.048"></polygon><g><polygon fill="#53873a" points="1336.385 624.048 1353.052 613.726 1367.414 606.392 1350.747 616.714"></polygon></g><g><polygon fill="#89e260" points="1350.747 616.714 1367.414 606.392 1382.193 633.671 1365.526 643.992"></polygon></g></g><g><polygon fill="#e6e6e6" points="1382.909 304.411 1163.749 431.554 1114.234 402.966 1333.394 275.823"></polygon><polygon fill="#e6e6e6" points="1263.674 365.988 1286.648 402.6 1304.084 392.534 1433.27 467.609 1434.072 480.033 1474.511 503.534 1473.506 487.899 1500.494 488.533 1460.054 465.032 1438.501 464.523 1309.371 389.481 1326.801 379.418"></polygon><g><ellipse cx="1268.937" cy="222.603" fill="#ff6445" rx="175.92" ry="101.898" transform="rotate(-60.163 1268.98 222.625)"></ellipse><ellipse cx="1268.937" cy="222.602" fill="#fff" rx="75.748" ry="43.876" transform="rotate(-60.163 1268.987 222.622)"></ellipse><path fill="#fff" d="M1268.937,184.571c-18.1,10.381-32.83,35.895-32.83,56.862
												c0,20.967,14.73,29.583,32.83,19.202c18.099-10.381,32.83-35.895,32.83-56.862
												C1301.767,182.805,1287.037,174.19,1268.937,184.571z"></path><path fill="#fff" d="M1284.486,213.684c0,9.931-6.976,22.014-15.549,26.932
												c-8.573,4.917-15.549,0.837-15.549-9.094c0-9.931,6.977-22.015,15.549-26.932
												C1277.51,199.672,1284.486,203.753,1284.486,213.684z"></path><ellipse cx="1268.937" cy="222.603" fill="#fff" rx="127.058" ry="73.596" transform="rotate(-60.163 1268.982 222.624)"></ellipse><path fill="#fff" d="M1198.105,263.23c0-45.249,31.772-100.279,70.832-122.683
													c39.06-22.404,70.832-3.821,70.832,41.428c0,45.249-31.772,100.28-70.832,122.683
													C1229.877,327.062,1198.105,308.479,1198.105,263.23z M1322.499,191.881c0-34.213-24.029-48.267-53.562-31.327
													c-29.533,16.939-53.562,58.558-53.562,92.771c0,34.213,24.029,48.267,53.562,31.327
													C1298.47,267.712,1322.499,226.094,1322.499,191.881L1322.499,191.881z"></path><ellipse cx="1268.937" cy="222.602" fill="#ff2121" rx="46.428" ry="26.893" transform="rotate(-60.163 1268.984 222.624)"></ellipse><ellipse cx="1268.937" cy="222.602" fill="#ff6445" rx="75.748" ry="43.875" transform="rotate(-60.163 1268.986 222.622)"></ellipse><path fill="#fff" d="M1284.486,213.684c0-9.931-6.976-14.012-15.549-9.094
												c-8.573,4.917-15.549,17.001-15.549,26.932c0,9.931,6.976,14.011,15.549,9.094
												C1277.51,235.698,1284.486,223.615,1284.486,213.684L1284.486,213.684z"></path><path fill="#d9482c" d="M1080.191,257.184c0,40.048,14.102,68.194,36.87,81.253l64.351,36.768
												c-22.767-13.059-36.869-41.204-36.869-81.253c0-79.582,55.687-176.046,124.394-215.454
												c34.128-19.575,65.047-21.385,87.524-8.493l-64.352-36.768c-22.476-12.892-53.396-11.081-87.523,8.493
												C1135.878,81.139,1080.191,177.602,1080.191,257.184z"></path><g><polygon fill="#633d14" points="1315.251 248.101 1315.272 255.766 1333.611 245.179 1333.589 237.513"></polygon><polygon fill="#633d14" points="1291.343 261.904 1291.364 269.57 1309.709 258.978 1309.687 251.313"></polygon><polygon fill="#6d3f15" points="1267.17 223.382 1267.192 231.048 1291.364 269.57 1291.343 261.904"></polygon><polygon fill="#754115" points="1309.687 251.313 1309.709 258.978 1445.632 337.968 1445.61 330.303"></polygon><polygon fill="#613814" points="1445.61 330.303 1445.632 337.968 1446.476 351.04 1446.454 343.374"></polygon><polygon fill="#613c13" points="1487.945 351.651 1487.966 359.317 1516.361 359.983 1516.339 352.318"></polygon><polygon fill="#754115" points="1446.454 343.374 1446.476 351.04 1489.024 375.766 1489.002 368.101"></polygon><polygon fill="#ffa22f" points="1267.17 223.382 1291.343 261.904 1309.687 251.313 1445.61 330.303 1446.454 343.374 1489.002 368.101 1487.945 351.651 1516.339 352.318 1473.791 327.591 1451.114 327.056 1315.251 248.101 1333.589 237.513"></polygon></g></g></g><g><path fill="#a13a2e" d="M2080.436,611.427c-22.671-24.374-75.623-120.118-80.888-137.607
								c-4.82-16.014,21.909-40.825,48.245-4.795c19.719,26.978,58.66,111.12,64.963,135.566
								C2117.755,623.978,2106.104,639.022,2080.436,611.427z"></path><path fill="#c9c9c9" d="M2133.569,671.167c1.112,11.041-1.152,21.479-0.356,31.736
								c0.305,12.421-25.426,17.896-37.554,10.754c-2.466-10.265-6.464-20.699-9.033-31.724
								C2094.716,665.654,2128.749,665.424,2133.569,671.167z"></path><path fill="#e8bfa6" d="M2091.696,680.844c6.548,28.223,13.86,57.641,15.586,65.323
								c4.343,19.322,24.125,8.811,24.163-2.607c0.016-5.179-1.386-33.332-4.232-63.252L2091.696,680.844z"></path><path fill="#a13a2e" d="M2112.254,603.011c6.926,9.469,12.657,50.4,15.763,86.042l-32.483,8.152
								c-6.768-28.501-15.725-71.78-16.635-82.436C2076.995,592.467,2105.292,593.493,2112.254,603.011z"></path><path fill="#fff" d="M2133.569,671.167c1.112,11.041,0.2,21.172-0.356,31.736
								c-7.693-6.123-32.584,1.3-37.554,10.754c-2.466-10.265-6.464-20.699-9.033-31.724
								C2094.716,665.654,2128.749,665.424,2133.569,671.167z"></path><path fill="#e8bfa6" d="M2107.719,779.725c1.333-3.855,0.781-10.485,1.881-11.541c0.372-0.086,3.313,5.303,4.45,12.807
							c1.348,8.898,1.439,11.961,2.461,13.202c3.871,8.115,19.461-0.408,21.293-1.957c6.815-5.763,6.592-21.541,5.816-28.326
							c-0.87-7.604-4.346-14.884-8.07-18.381c-2.453-2.304-4.789-7.143-5.543-9.638c-3.002-9.937-26.367-9.053-25.483-3.146
							c0.769,5.42,0.134,8.679-2.473,12.412c-4.865,6.965-4.817,18.91-3.932,21.001c1.939,4.581,1.471,13.222,0.67,16.617
							c-0.211,0.894,0.319,1.824,1.215,2.02C2102.771,785.399,2106.032,784.6,2107.719,779.725z"></path><g><polygon fill="#b97f41" points="1690.78 732.258 1717.595 719.878 1717.192 724.032 1690.377 736.411"></polygon><polygon fill="#d08f49" points="1690.377 736.411 1717.192 724.032 1848.088 819.245 1821.274 831.624"></polygon><polygon fill="#a8733b" points="1821.274 831.624 1848.088 819.245 1840.448 897.952 1813.634 910.331"></polygon><polygon fill="#636363" points="1821.677 827.47 1848.491 815.091 1848.088 819.245 1821.274 831.624"></polygon><polygon fill="#976835" points="1690.78 732.258 1717.595 719.878 1848.491 815.091 1821.677 827.47"></polygon><polygon fill="#1f1f1f" points="1821.677 827.47 1821.274 831.624 1690.377 736.411 1690.78 732.258"></polygon><polygon fill="#a8733b" points="1824.471 798.686 1851.285 786.307 1848.491 815.091 1821.677 827.47"></polygon><polygon fill="#4f361a" points="1824.471 798.686 1821.677 827.47 1690.78 732.258 1690.377 736.411 1821.274 831.624 1813.634 910.331 1682.737 815.119 1690.377 736.411 1690.78 732.258 1693.574 703.473"></polygon><polygon fill="#d6934b" points="1693.574 703.473 1720.389 691.094 1851.285 786.307 1824.471 798.686"></polygon><polygon fill="#d9d9d9" points="1759.225 731.701 1792.173 755.115 1783.277 758.864 1750.341 735.445"></polygon><polygon fill="#c5c5c5" points="1753.436 729.792 1760.14 726.697 1759.57 732.571 1752.866 735.666"></polygon><polygon fill="#dcdcdc" points="1752.866 735.666 1759.57 732.571 1764.862 736.329 1758.158 739.424"></polygon><polygon fill="#9f9f9f" points="1753.436 729.792 1760.14 726.697 1765.432 730.456 1758.728 733.55"></polygon><polygon fill="#c4bd3c" points="1758.728 733.55 1765.432 730.456 1764.862 736.329 1758.158 739.424"></polygon><polygon fill="#6e6a0d" points="1758.728 733.55 1758.158 739.424 1752.866 735.666 1753.436 729.792"></polygon><polygon fill="#7d7d7d" points="1759.601 724.555 1766.305 721.461 1765.432 730.456 1758.728 733.55"></polygon><polygon fill="#c5c5c5" points="1779.079 748.003 1785.783 744.909 1785.213 750.782 1778.509 753.877"></polygon><polygon fill="#dcdcdc" points="1778.509 753.877 1785.213 750.782 1790.494 754.532 1783.79 757.627"></polygon><polygon fill="#9f9f9f" points="1779.079 748.003 1785.783 744.909 1791.064 748.659 1784.36 751.754"></polygon><polygon fill="#6e6a0d" points="1784.36 751.754 1783.79 757.627 1778.509 753.877 1779.079 748.003"></polygon><polygon fill="#c4bd3c" points="1784.36 751.754 1791.064 748.659 1790.494 754.532 1783.79 757.627"></polygon><polygon fill="#7d7d7d" points="1785.795 736.978 1792.498 733.883 1791.064 748.659 1784.36 751.754"></polygon><polygon fill="#ababab" points="1754.871 715.016 1761.574 711.922 1792.498 733.883 1785.795 736.978"></polygon><polygon fill="#2e2e2e" points="1785.795 736.978 1784.36 751.754 1779.079 748.003 1778.509 753.877 1783.79 757.627 1778.509 753.877 1779.952 739.008 1759.601 724.555 1758.728 733.55 1753.436 729.792 1752.866 735.666 1758.158 739.424 1752.866 735.666 1754.871 715.016"></polygon><path fill="#fff750" d="M1815.504,792.318l8.967,6.368l9.437-4.357
											C1828.326,791.262,1822.123,790.887,1815.504,792.318z"></path><path fill="#c4bd3c" d="M1833.907 794.329l-9.437 4.357-.949 9.778C1827.638 805.325 1830.963 800.285 1833.907 794.329zM1831.208 902.319l9.437-4.357.949-9.778C1837.477 891.323 1834.152 896.363 1831.208 902.319z"></path><path fill="#6e6a0d" d="M1823.522 808.464l.949-9.778-8.967-6.368C1816.924 798.904 1819.312 804.559 1823.522 808.464zM1683.78 804.351l-.949 9.778 8.967 6.368C1690.378 813.912 1687.99 808.256 1683.78 804.351z"></path><path fill="#fff750" d="M1841.788,790.691l9.497-4.385l-8.486-6.027
											C1841.247,783.832,1840.889,787.303,1841.788,790.691z"></path><path fill="#c4bd3c" d="M1850.273 796.731l1.012-10.424-9.497 4.385C1843.801 793.78 1846.598 795.835 1850.273 796.731zM1814.646 899.908l-1.012 10.424 9.497-4.385C1821.117 902.858 1818.32 900.804 1814.646 899.908z"></path><g><path fill="#fff750" d="M1728.999 697.208l-8.61-6.115-9.296 4.292C1716.506 698.062 1722.471 698.683 1728.999 697.208zM1702.824 699.203l-9.25 4.27 8.745 6.211C1703.874 706.493 1703.75 702.935 1702.824 699.203z"></path></g><path fill="#6e6a0d" d="M1702.319 709.684l-8.745-6.211-1.058 10.897C1696.222 713.978 1699.49 712.416 1702.319 709.684zM1804.921 904.124l8.745 6.211 1.017-10.419C1810.978 900.307 1807.751 901.392 1804.921 904.124z"></path></g><g><path fill="#ffd4b9" d="M1938.56,346.731c-1.516,5.15,0.342,12.875,0,20.677c-0.688,15.692-2.52,29.888,1.161,44.683
								c4.271,17.168,8.403,30.941,28.652,20.838c18.854-9.407,30.847-13.375,28.667-41.323
								c-1.139-14.599,48.627-2.134,52.574-23.427c7.004-37.788-20.266-66.19-48.88-67.026
								C1967.564,300.184,1949.126,310.824,1938.56,346.731z"></path><path fill="#6e4839" d="M1920.334,480.149l22.908,2.94l21.549-115.745l-16.646-1.537
								C1950.389,409.606,1936.702,443.757,1920.334,480.149z"></path><path fill="#e8bfa6" d="M1871.808,1013.653c-5.851,12.91-8.333,18.441-13.66,22.949
								c3.079,1.396,18.125-5.122,23.976-18.032c5.851-12.91,4.102-33.984,1.022-35.38
								C1880.067,981.794,1877.659,1000.742,1871.808,1013.653z"></path><path fill="#b44134" d="M1888.65,562.869c3.338,18.182,28.586,20.071,34.982,31.647
								c9.397-10.905-11.044-83.608-22.284-81.544C1899.051,527.419,1885.312,544.688,1888.65,562.869z"></path><path fill="#e8bfa6" d="M2056.146,773.715c-4.086,25.421-6.76,49.812-57.973,52.57
									c-54.883,25.606-77.76,26.279-98.804,35.981c-21.36,9.848-36.196-20.352-32.68-43.545
									c3.195-21.08,103.257-89.358,137.121-83.641C2043.065,741.708,2060.806,744.718,2056.146,773.715z"></path><path fill="#e8bfa6" d="M1882.996 992.356c5.807-84.308-27.714-145.461-14.951-177.98 8.328-21.218 39.038 11.596 42.934 33.905 13.188 75.51-1.102 75.356 5.484 144.425C1902.96 995.063 1893.86 1001.772 1882.996 992.356zM2061.26 745.485c14.463 16.825 5.074 64.687-20.786 96.233-4.685 59.144-17.226 158.393-19.512 180.588-2.41 23.397-34.731 9.635-49.403-8.668-9.732-12.14 1.632-247.969 23.806-274.194C2021.07 709.045 2042.115 723.214 2061.26 745.485z"></path><path fill="#e8bfa6" d="M2029.188,1196.359c-28.033-79.723-64.808-156.285-57.431-187.756
										c5.202-22.192,38.226-6.742,49.354,12.982c24.849,44.043-0.129,56.688,39.318,169.179
										C2054.761,1204.772,2047.444,1209.291,2029.188,1196.359z"></path><path fill="#e8bfa6" d="M2061.26,745.485c14.463,16.825,5.074,64.687-20.786,96.233
										c-4.685,59.144-17.226,158.393-19.512,180.588c-2.41,23.397-34.731,9.635-49.403-8.668
										c-9.732-12.14,1.632-247.969,23.806-274.194C2021.07,709.045,2042.115,723.214,2061.26,745.485z"></path><path fill="#e8bfa6" d="M2029.188,1196.359c-28.033-79.723-64.808-156.285-57.431-187.756
										c5.202-22.192,38.226-6.742,49.354,12.982c24.849,44.043-0.129,56.688,39.318,169.179
										C2054.761,1204.772,2047.444,1209.291,2029.188,1196.359z"></path><path fill="#3b3b3b" d="M1861.093,844.15c7.786,63.957,156.693,146.615,177.38,100.034
								c-7.219-88.346,56.46-138.152,19.117-208.965c-31.261-16.243-81.731-34.096-131.955-11.882
								C1930.889,788.273,1860.749,763.022,1861.093,844.15z"></path><path fill="#b44134" d="M1925.649,723.47c16.748,19.908,102.646,27.29,132.036,12.41
								c14.103-14.95-18.376-20.548-13.813-77.271c6.303-78.371,35.449-182.032,22.863-194.695
								c-29.521-29.701-155.787-15.866-167.179,2.685c-11.316,18.427,38.376,137.493,33.57,208.842
								C1930.483,714.665,1921.273,715.336,1925.649,723.47z"></path><g><path fill="#3b3b3b" d="M1841.979,1059.621c6.062,3.412,14.919,5.377,20.252,2.558
									c22.109-11.684,33.214-36.105,50.633-61.619l-32.276-14.621c0,0-3.55,41.445-22.076,50.147
									c-8.879,4.171-12.915-1.996-21.048,5.658C1832.112,1046.783,1837.502,1057.101,1841.979,1059.621z"></path><path fill="gray" d="M1861.502,1062.674c0,0,21.633-3.507,26.549-7.086c11.237-8.181,22.788-43.212,22.788-43.212
									c-7.509-3.975-17.397-0.719-23.405,6.675C1873.566,1036.12,1871.185,1053.293,1861.502,1062.674z"></path><path fill="#3b3b3b" d="M1885.494,1019.19c11.174-8.994,16.425-8.395,25.891-7.086
									c6.206-12.249,10.896-27.262,0.545-36.248c-7.554-6.558-20.789-3.76-29.707,7.086
									C1874.228,992.666,1878.322,1006.85,1885.494,1019.19z"></path><path fill="#3b3b3b" d="M1898.303,1069.61c2.18,3.815,8.449,2.998,10.357,0l2.998-58.869l-16.625-0.545
									L1898.303,1069.61z"></path></g><g><path fill="#3b3b3b" d="M1992.017,1273.281c6.062,3.412,14.919,5.376,20.252,2.558
									c22.109-11.683,33.214-36.105,50.633-61.619l-32.276-14.621c0,0-3.551,41.445-22.076,50.147
									c-8.879,4.171-12.915-1.996-21.047,5.658C1982.15,1260.444,1987.541,1270.761,1992.017,1273.281z"></path><path fill="gray" d="M2011.541,1276.334c0,0,21.633-3.507,26.549-7.086c11.237-8.181,22.788-43.212,22.788-43.212
									c-7.509-3.975-17.397-0.719-23.405,6.675C2023.604,1249.781,2021.223,1266.954,2011.541,1276.334z"></path><path fill="#3b3b3b" d="M2035.532,1232.85c11.174-8.994,16.425-8.395,25.891-7.086
									c6.206-12.249,10.896-27.262,0.545-36.248c-7.554-6.558-20.789-3.76-29.707,7.086
									C2024.266,1206.327,2028.36,1220.511,2035.532,1232.85z"></path><path fill="#3b3b3b" d="M2048.342,1283.27c2.18,3.815,8.449,2.998,10.357,0l2.998-58.869l-16.625-0.545
									L2048.342,1283.27z"></path></g><g><path fill="#6e4839" d="M1939.477,580.744c0.745,12.026,69.319,25.027,91.874,7.65c0,0,36.176-52.933,18.965-122.294
									c-12.913-52.039,19.86-115.579,3.826-145.536c-15.392-28.757-65.141-35.77-91.659-17.409
									c-38.338,26.545-5.776,109.884,3.249,169.267C1973.22,521.69,1937.756,552.933,1939.477,580.744z"></path></g><path fill="#6e4839" d="M2035.739,579.426c1.04,10.229,35.429,0.505,43.341-7.108
								c17.917-17.241,20.121-44.174,2.441-99.431c-9.053-28.295-36.147-45.939-26.486-122.321l-8.215-4.583
								c-9.202,74.641-12.548,107.996-1.097,135.237C2063.009,522.342,2034.37,565.97,2035.739,579.426z"></path></g><g><path fill="#a3a3a3" d="M1822.135,671.364c6.088-9.132,12.051-16.646,19.503-24.892
									c12.363-7.847,40.424,18.802,34.762,32.327c-8.185,6.881-16.763,12.661-26.147,18.495
									C1839.285,696.822,1821.442,676.665,1822.135,671.364z"></path><path fill="#e8bfa6" d="M1831.137,667.487c-11.984,13.337-22.811,25.307-27.587,29.276
									c-15.233,12.657,5.814,24.965,15.26,18.55c4.918-3.34,26.952-19.865,48.654-38.076L1831.137,667.487z"></path><path fill="#a13a2e" d="M1896.127,469.508c5.653-15.74,37.478-9.489,36.777,18.164
									c-0.847,33.406-14.557,120.423-18.333,137.702c-3.628,16.602-26.15,27.359-31.497-7.908
									C1882.122,611.186,1890.998,483.79,1896.127,469.508z"></path><path fill="#a13a2e" d="M1827.67,671.344c16.859-18.725,46.001-47.656,55.124-55.058
									c17.382-14.102,36.099-2.461,31.532,12.164c-3.693,12.41-37.016,41.22-63.49,62.401
									C1846.175,686.677,1830.715,673.71,1827.67,671.344z"></path><path fill="#fff" d="M1822.135,671.364c6.088-9.132,12.051-16.646,19.503-24.892
									c-3.842,11.721,22.645,36.687,34.762,32.327c-8.185,6.881-16.763,12.661-26.147,18.495
									C1839.285,696.822,1821.442,676.665,1822.135,671.364z"></path><g><path fill="#e8bfa6" d="M1756.691,721.968c0.368-3.996,6.589-14.698,11.331-13.297
									c10.055,2.972,16.315-6.8,23.455-5.589c6.764,1.147,16.845-10.199,16.845-10.199l18.562,15.782
									c0,0-9.11,7.957-14.156,17.859c-3.898,7.65-22.954,17.673-27.986,17.255C1775.46,743.009,1756.343,725.749,1756.691,721.968
									z"></path><path fill="#e8bfa6" d="M1758.159,706.463c-0.837,0.125-1.452,0.896-1.313,1.731c0.427,2.575,3.15,5.55,7.772,4.439
									c4.077-0.98,11.122-2.781,15.195,1.603l12.471-9.933c0,0-10.806-2.227-13.225-2.557
									C1774.515,701.126,1761.338,705.988,1758.159,706.463z"></path></g></g></g><g><path fill="#f0f0f0" d="M2344.449,427.561c-22.739,13.128-28.203,32.475-16.39,48.558
								c-3.129,1.382-6.146,2.889-9.01,4.543c-34.668,20.016-34.851,52.476-0.408,72.492c34.442,20.016,90.482,20.016,125.15,0.001
								c6.837-3.947,12.306-8.38,16.457-13.091c35.292,2.235,72.017-4.462,99.186-20.148c8.441-4.873,15.362-10.291,20.813-16.046
								c23.728,0.5,47.766-4.484,65.934-14.973c34.668-20.016,34.851-52.476,0.408-72.492
								c-13.572-7.887-30.499-12.651-48.142-14.319c-3.689-5.256-9.181-10.173-16.505-14.429
								c-29.636-17.223-77.821-17.216-107.638,0c-6.671,3.852-11.848,8.233-15.542,12.915c-20.884,1.551-41.215,6.255-58.72,14.105
								C2380.005,414.418,2359.791,418.704,2344.449,427.561z"></path><path fill="#f7f7f7" d="M2379.139,542.242c21.572,0,41.699-4.761,56.677-13.407c5.522-3.188,10.05-6.767,13.46-10.638
								l3.878-4.403l5.857,0.37c4.143,0.263,8.36,0.395,12.533,0.395c30.351,0.002,58.732-6.734,79.914-18.963
								c7.221-4.169,13.314-8.85,18.109-13.912l3.642-3.846l5.296,0.112c0.996,0.02,1.994,0.031,2.991,0.031
								c21.597,0,41.735-4.76,56.708-13.405c12.785-7.381,20.126-16.868,20.139-26.027c0.012-9.065-7.19-18.453-19.76-25.759
								c-11.646-6.768-26.604-11.178-43.257-12.752l-5.496-0.519l-3.171-4.519c-2.803-3.995-7.083-7.681-12.723-10.959
								c-12.351-7.177-29.75-11.294-47.733-11.294c-17.997,0-35.46,4.123-47.91,11.311c-5.204,3.004-9.285,6.355-12.13,9.963
								l-3.259,4.132l-5.249,0.39c-20.009,1.486-38.927,6.013-54.712,13.091l-2.409,1.081l-2.641-0.034
								c-0.518-0.007-1.035-0.01-1.553-0.01c-18.011,0-35.471,4.116-47.903,11.294c-9.081,5.242-14.819,11.648-16.161,18.038
								c-0.909,4.337,0.245,8.736,3.432,13.076l8.82,12.009l-13.63,6.018c-2.831,1.25-5.476,2.582-7.861,3.959
								c-12.785,7.381-20.125,16.868-20.138,26.027c-0.013,9.065,7.19,18.453,19.76,25.758
								C2337.518,537.486,2357.577,542.242,2379.139,542.242z"></path><path fill="#fff" d="M2379.139,530.277c20.539,0,39.604-4.477,53.686-12.605c4.958-2.863,8.982-6.03,11.961-9.413
								l5.818-6.604l8.783,0.555c4.01,0.255,8.099,0.384,12.156,0.384c29.323,0,56.636-6.45,76.923-18.162
								c6.722-3.881,12.36-8.203,16.758-12.845l5.463-5.769l7.944,0.167c0.951,0.02,1.908,0.03,2.865,0.03
								c20.563,0,39.64-4.476,53.717-12.603c10.728-6.194,17.137-13.99,17.147-20.854c0.01-6.773-6.265-14.465-16.783-20.579
								c-10.904-6.337-25.018-10.475-40.814-11.968l-8.243-0.779l-4.757-6.779c-2.302-3.28-5.946-6.383-10.832-9.223
								c-11.466-6.662-27.768-10.484-44.728-10.484c-16.979,0-33.351,3.831-44.919,10.51c-4.544,2.623-8.051,5.478-10.424,8.486
								l-4.889,6.198l-7.873,0.584c-19.322,1.435-37.548,5.787-52.707,12.584l-3.613,1.621l-3.961-0.051l-1.476-0.01
								c-16.993,0-33.363,3.825-44.912,10.492c-7.478,4.316-12.324,9.451-13.297,14.086c-0.553,2.637,0.232,5.354,2.399,8.305
								l13.229,18.014l-20.445,9.028c-2.637,1.165-5.089,2.398-7.286,3.667c-10.727,6.193-17.137,13.99-17.147,20.855
								c-0.01,6.772,6.264,14.464,16.783,20.577C2339.624,525.808,2358.616,530.277,2379.139,530.277z"></path></g><g><path fill="#f0f0f0" d="M1822.297,165.559c16.565,9.564,20.546,23.659,11.94,35.376
								c2.28,1.007,4.477,2.105,6.564,3.309c25.256,14.582,25.389,38.23,0.297,52.812c-25.092,14.582-65.918,14.582-91.175,0
								c-4.981-2.876-8.965-6.105-11.989-9.537c-25.711,1.628-52.465-3.25-72.259-14.678c-6.149-3.55-11.192-7.497-15.163-11.69
								c-17.286,0.364-34.798-3.266-48.034-10.908c-25.256-14.582-25.389-38.23-0.297-52.812
								c9.888-5.746,22.219-9.216,35.072-10.432c2.687-3.829,6.689-7.411,12.024-10.512c21.59-12.547,56.694-12.542,78.417,0
								c4.86,2.806,8.632,5.998,11.323,9.409c15.214,1.13,30.026,4.557,42.779,10.276
								C1796.394,155.984,1811.12,159.106,1822.297,165.559z"></path><path fill="#f7f7f7" d="M1797.024,249.106c-15.715,0-30.379-3.469-41.29-9.768c-4.023-2.322-7.322-4.93-9.806-7.75
								l-2.825-3.208l-4.267,0.27c-3.018,0.191-6.09,0.288-9.131,0.288c-22.112,0.001-42.787-4.906-58.219-13.815
								c-5.26-3.037-9.699-6.447-13.193-10.135l-2.654-2.802l-3.858,0.081c-0.726,0.015-1.453,0.023-2.179,0.023
								c-15.734,0-30.405-3.468-41.313-9.766c-9.314-5.378-14.662-12.289-14.671-18.961c-0.009-6.604,5.238-13.444,14.395-18.766
								c8.484-4.931,19.381-8.143,31.514-9.29l4.004-0.378l2.31-3.292c2.042-2.91,5.161-5.596,9.269-7.984
								c8.998-5.229,21.673-8.228,34.775-8.228c13.111,0,25.833,3.003,34.904,8.24c3.791,2.188,6.764,4.63,8.837,7.258l2.374,3.01
								l3.824,0.284c14.577,1.082,28.359,4.381,39.859,9.537l1.755,0.787l1.924-0.025c0.377-0.005,0.754-0.007,1.131-0.007
								c13.121,0,25.841,2.998,34.898,8.228c6.615,3.819,10.796,8.486,11.774,13.141c0.662,3.159-0.179,6.364-2.5,9.526
								l-6.425,8.749l9.93,4.384c2.062,0.911,3.989,1.881,5.726,2.884c9.314,5.378,14.661,12.289,14.671,18.961
								c0.009,6.604-5.238,13.443-14.396,18.765C1827.346,245.642,1812.733,249.106,1797.024,249.106z"></path><path fill="#fff" d="M1797.024,240.39c-14.963,0-28.852-3.261-39.111-9.183c-3.612-2.085-6.544-4.393-8.714-6.857
								l-4.238-4.811l-6.399,0.404c-2.922,0.186-5.9,0.279-8.856,0.279c-21.363,0-41.261-4.699-56.04-13.231
								c-4.897-2.827-9.004-5.976-12.208-9.358l-3.98-4.203l-5.787,0.122c-0.693,0.014-1.39,0.022-2.087,0.022
								c-14.981,0-28.879-3.261-39.134-9.182c-7.816-4.512-12.485-10.192-12.492-15.193c-0.007-4.934,4.564-10.538,12.227-14.992
								c7.944-4.616,18.226-7.631,29.734-8.719l6.005-0.567l3.466-4.939c1.677-2.39,4.332-4.65,7.891-6.719
								c8.353-4.853,20.23-7.637,32.585-7.637c12.37,0,24.297,2.791,32.725,7.657c3.31,1.911,5.865,3.991,7.594,6.183l3.562,4.516
								l5.736,0.426c14.076,1.046,27.354,4.216,38.398,9.168l2.632,1.181l2.886-0.037l1.075-0.007
								c12.38,0,24.306,2.786,32.719,7.644c5.448,3.145,8.978,6.886,9.688,10.262c0.403,1.921-0.169,3.901-1.748,6.051
								l-9.638,13.124l14.895,6.577c1.922,0.848,3.708,1.747,5.308,2.671c7.815,4.511,12.485,10.192,12.492,15.193
								c0.007,4.933-4.564,10.537-12.227,14.99C1825.812,237.134,1811.976,240.39,1797.024,240.39z"></path></g><g><path fill="#f0f0f0" d="M407.878,304.113c-35.387,20.432-43.89,50.542-25.507,75.573
								c-4.87,2.151-9.564,4.496-14.022,7.07c-53.952,31.151-54.237,81.671-0.635,112.822
								c53.601,31.152,140.813,31.152,194.765,0.001c10.64-6.143,19.151-13.042,25.611-20.375
								c54.922,3.478,112.076-6.944,154.358-31.357c13.136-7.585,23.908-16.016,32.391-24.974
								c36.927,0.778,74.335-6.978,102.609-23.303c53.952-31.151,54.237-81.671,0.635-112.822
								c-21.122-12.275-47.465-19.689-74.921-22.286c-5.74-8.18-14.288-15.833-25.686-22.457
								c-46.121-26.804-121.109-26.793-167.512-0.001c-10.382,5.995-18.439,12.813-24.187,20.1
								c-32.501,2.414-64.141,9.735-91.384,21.953C463.212,283.659,431.754,290.328,407.878,304.113z"></path><path fill="#f7f7f7" d="M461.864,482.596c33.571,0,64.895-7.41,88.203-20.867
								c8.593-4.961,15.641-10.532,20.947-16.557l6.035-6.853l9.114,0.576c6.448,0.409,13.01,0.615,19.505,0.615
								c47.234,0.003,91.402-10.48,124.367-29.513c11.237-6.489,20.72-13.773,28.183-21.652l5.669-5.986l8.242,0.174
								c1.55,0.032,3.103,0.049,4.655,0.049c33.61,0,64.951-7.409,88.251-20.862c19.897-11.488,31.321-26.252,31.341-40.507
								c0.02-14.108-11.189-28.719-30.751-40.089c-18.124-10.533-41.402-17.396-67.319-19.847l-8.552-0.808l-4.935-7.033
								c-4.363-6.218-11.024-11.955-19.8-17.056c-19.221-11.17-46.298-17.577-74.285-17.577c-28.008,0-55.185,6.416-74.561,17.604
								c-8.099,4.675-14.45,9.891-18.877,15.505l-5.072,6.431l-8.169,0.606c-31.139,2.312-60.581,9.359-85.145,20.374l-3.749,1.682
								l-4.109-0.053c-0.806-0.011-1.611-0.015-2.417-0.015c-28.03,0-55.202,6.405-74.549,17.577
								c-14.132,8.159-23.063,18.128-25.151,28.074c-1.415,6.75,0.382,13.596,5.341,20.35l13.725,18.691l-21.212,9.366
								c-4.405,1.946-8.522,4.019-12.233,6.161c-19.897,11.488-31.319,26.252-31.34,40.508
								c-0.02,14.108,11.189,28.719,30.751,40.088C397.092,475.195,428.309,482.596,461.864,482.596z"></path><path fill="#fff" d="M461.865,463.975c31.963,0,61.634-6.968,83.548-19.618
								c7.716-4.455,13.978-9.385,18.615-14.649l9.054-10.279l13.669,0.864c6.242,0.397,12.604,0.597,18.918,0.597
								c45.634,0,88.141-10.038,119.712-28.266c10.461-6.04,19.235-12.767,26.079-19.991l8.502-8.979l12.363,0.261
								c1.48,0.03,2.97,0.047,4.458,0.047c32.001,0,61.69-6.966,83.596-19.615c16.695-9.639,26.67-21.773,26.686-32.456
								c0.015-10.541-9.749-22.512-26.119-32.027c-16.97-9.862-38.934-16.302-63.518-18.627l-12.828-1.212l-7.404-10.55
								c-3.582-5.105-9.254-9.935-16.857-14.354c-17.844-10.368-43.214-16.316-69.608-16.316c-26.423,0-51.903,5.962-69.906,16.357
								c-7.072,4.082-12.53,8.525-16.223,13.208l-7.608,9.647l-12.253,0.909c-30.069,2.234-58.434,9.006-82.025,19.585l-5.623,2.523
								l-6.164-0.079l-2.297-0.015c-26.446,0-51.921,5.952-69.894,16.33c-11.637,6.718-19.179,14.71-20.694,21.923
								c-0.861,4.104,0.361,8.333,3.734,12.926l20.588,28.036l-31.818,14.05c-4.105,1.812-7.92,3.732-11.339,5.707
								c-16.694,9.638-26.67,21.773-26.686,32.458c-0.015,10.539,9.749,22.511,26.119,32.024
								C400.37,457.02,429.925,463.975,461.865,463.975z"></path></g><path fill="#e6e6e6" d="M482.59 1261.929c31.963 0 61.634-6.968 83.548-19.618 7.716-4.455 13.979-9.385 18.615-14.649l9.054-10.279 13.669.864c6.241.397 12.604.597 18.918.597 45.634 0 88.141-10.038 119.712-28.266 10.461-6.04 19.235-12.767 26.08-19.991l8.502-8.978 12.363.26c1.48.03 2.97.047 4.458.047 32.001 0 61.69-6.966 83.596-19.615 16.695-9.639 26.671-21.773 26.686-32.456.015-10.541-9.749-22.512-26.119-32.027-16.97-9.862-38.934-16.302-63.518-18.627l-12.828-1.212-7.404-10.55c-3.582-5.105-9.254-9.935-16.858-14.354-17.844-10.368-43.214-16.316-69.607-16.316-26.423 0-51.903 5.962-69.906 16.357-7.072 4.082-12.53 8.526-16.223 13.208l-7.608 9.647-12.253.909c-30.069 2.234-58.434 9.006-82.025 19.585l-5.623 2.523-6.164-.079-2.297-.015c-26.446 0-51.921 5.952-69.894 16.33-11.638 6.718-19.179 14.71-20.694 21.923-.861 4.104.361 8.333 3.734 12.926l20.588 28.036-31.818 14.051c-4.105 1.812-7.92 3.732-11.339 5.707-16.694 9.638-26.67 21.773-26.686 32.458-.015 10.539 9.749 22.511 26.119 32.024C421.096 1254.973 450.651 1261.929 482.59 1261.929zM2394.683 1319.445c20.539 0 39.604-4.477 53.685-12.605 4.958-2.863 8.982-6.03 11.961-9.413l5.818-6.604 8.783.555c4.01.255 8.099.384 12.156.384 29.323 0 56.637-6.45 76.923-18.162 6.722-3.881 12.36-8.203 16.758-12.845l5.463-5.769 7.944.167c.951.02 1.908.03 2.865.03 20.563 0 39.64-4.476 53.717-12.603 10.728-6.193 17.138-13.99 17.147-20.854.01-6.773-6.265-14.465-16.783-20.579-10.904-6.337-25.018-10.475-40.814-11.968l-8.243-.779-4.757-6.779c-2.302-3.28-5.946-6.383-10.832-9.223-11.466-6.662-27.768-10.484-44.728-10.484-16.979 0-33.351 3.83-44.919 10.51-4.544 2.623-8.051 5.478-10.424 8.487l-4.889 6.198-7.873.584c-19.322 1.435-37.548 5.786-52.707 12.584l-3.613 1.621-3.961-.051-1.476-.01c-16.994 0-33.363 3.825-44.912 10.492-7.478 4.316-12.324 9.451-13.297 14.086-.553 2.637.232 5.354 2.399 8.305l13.229 18.014-20.445 9.028c-2.638 1.164-5.089 2.398-7.286 3.667-10.727 6.193-17.138 13.99-17.147 20.855-.01 6.772 6.265 14.464 16.783 20.577C2355.169 1314.976 2374.16 1319.445 2394.683 1319.445z"></path></g></switch></svg>